<?xml version="1.0" encoding="iso-8859-1"?>
<!-- Generator: Adobe Illustrator 19.0.0, SVG Export Plug-In . SVG Version: 6.00 Build 0)  -->
<svg version="1.1" id="Capa_1" xmlns="http://www.w3.org/2000/svg" xmlns:xlink="http://www.w3.org/1999/xlink" x="0px" y="0px"
	 viewBox="0 0 512 512" style="enable-background:new 0 0 512 512;" xml:space="preserve">
<path style="fill:#CCCCCC;" d="M468.731,402.964c-19.425,0-35.228-15.808-35.228-35.238V109.036h70.465v258.69
	c0,9.412-3.667,18.262-10.326,24.921C486.989,399.3,478.143,402.964,468.731,402.964z"/>
<path style="fill:#EFEFEF;" d="M43.269,402.964c-19.43,0-35.238-15.807-35.238-35.238V109.036h429.488v258.69
	c0,17.215,14.002,31.222,31.212,31.222v4.016L43.269,402.964L43.269,402.964z M385.225,349.104V222.238h-83.466v126.866H385.225z"/>
<rect x="297.743" y="218.222" style="fill:#CCCCCC;" width="91.497" height="134.897"/>
<path d="M273.639,150.799H171.922c-5.545,0-10.039,4.496-10.039,10.039s4.495,10.039,10.039,10.039h101.717
	c5.545,0,10.039-4.496,10.039-10.039S279.184,150.799,273.639,150.799z"/>
<path d="M387.233,210.191h-87.482c-5.545,0-10.039,4.496-10.039,10.039v130.881c0,5.544,4.495,10.039,10.039,10.039h87.482
	c5.545,0,10.039-4.496,10.039-10.039V220.23C397.272,214.687,392.777,210.191,387.233,210.191z M377.193,341.072H309.79V230.27
	h67.403L377.193,341.072L377.193,341.072z"/>
<path d="M253.44,210.191H58.328c-5.545,0-10.039,4.496-10.039,10.039c0,5.544,4.495,10.039,10.039,10.039H253.44
	c5.545,0,10.039-4.496,10.039-10.039C263.479,214.687,258.985,210.191,253.44,210.191z"/>
<path d="M253.44,253.811H58.328c-5.545,0-10.039,4.496-10.039,10.039c0,5.544,4.495,10.039,10.039,10.039H253.44
	c5.545,0,10.039-4.496,10.039-10.039C263.479,258.307,258.985,253.811,253.44,253.811z"/>
<path d="M253.44,297.442H58.328c-5.545,0-10.039,4.496-10.039,10.039c0,5.544,4.495,10.039,10.039,10.039H253.44
	c5.545,0,10.039-4.496,10.039-10.039C263.479,301.937,258.985,297.442,253.44,297.442z"/>
<path d="M224.544,341.072H58.328c-5.545,0-10.039,4.496-10.039,10.039c0,5.544,4.495,10.039,10.039,10.039h166.215
	c5.545,0,10.039-4.496,10.039-10.039C234.582,345.568,230.088,341.072,224.544,341.072z"/>
<path d="M501.961,101.005h-66.45H10.039C4.495,101.005,0,105.5,0,111.044v256.683c0,23.859,19.41,43.269,43.269,43.269h425.462
	c11.557,0,22.421-4.499,30.591-12.667c8.176-8.177,12.678-19.044,12.678-30.601V111.044C512,105.5,507.505,101.005,501.961,101.005z
	 M20.078,367.726V121.083h405.394v246.643c0,8.528,2.49,16.481,6.766,23.191H43.269C30.482,390.917,20.078,380.513,20.078,367.726z
	 M491.922,367.726c0,6.194-2.414,12.02-6.798,16.403c-4.377,4.376-10.199,6.787-16.393,6.787c-12.782,0-23.181-10.403-23.181-23.191
	V121.083h13.141v217.078c0,5.544,4.495,10.039,10.039,10.039c5.545,0,10.039-4.496,10.039-10.039V121.083h13.151V367.726z"/>
<path d="M253.44,341.072c-12.919,0-12.941,20.078,0,20.078C266.359,361.151,266.381,341.072,253.44,341.072z"/>
<g>
</g>
<g>
</g>
<g>
</g>
<g>
</g>
<g>
</g>
<g>
</g>
<g>
</g>
<g>
</g>
<g>
</g>
<g>
</g>
<g>
</g>
<g>
</g>
<g>
</g>
<g>
</g>
<g>
</g>
</svg>
